<svg xmlns="http://www.w3.org/2000/svg" viewBox="0 16.25 159.1999969482422 38" data-asc="1.075" width="159.1999969482422" height="38"><defs/><g fill="#000000"><g transform="translate(0, 0)"><path d="M2.85 53.75Q1.70 53.75 0.85 52.90Q0 52.05 0 50.90L0 20.10Q0 18.95 0.85 18.10Q1.70 17.25 2.85 17.25L19.75 17.25Q20.70 17.25 21.35 17.90Q22 18.55 22 19.50Q22 20.45 21.35 21.10Q20.70 21.75 19.75 21.75L5.95 21.75Q5.50 21.75 5.50 22.15L5.50 31.70Q5.50 32.15 5.95 32.15L18.85 32.15Q19.75 32.15 20.38 32.77Q21 33.40 21 34.30Q21 35.20 20.38 35.83Q19.75 36.45 18.85 36.45L5.95 36.45Q5.50 36.45 5.50 36.90L5.50 48.80Q5.50 49.25 5.95 49.25L19.75 49.25Q20.70 49.25 21.35 49.90Q22 50.55 22 51.50Q22 52.45 21.35 53.10Q20.70 53.75 19.75 53.75L2.85 53.75ZM29.45 32.75Q28.60 32.75 28.03 32.15Q27.45 31.55 27.45 30.75Q27.45 29.95 28.03 29.35Q28.60 28.75 29.45 28.75L32.25 28.75Q32.70 28.75 32.70 28.30L32.70 21.85Q32.70 20.75 33.45 20Q34.20 19.25 35.30 19.25Q36.40 19.25 37.18 20Q37.95 20.75 37.95 21.85L37.95 28.30Q37.95 28.75 38.40 28.75L44.95 28.75Q45.80 28.75 46.38 29.35Q46.95 29.95 46.95 30.75Q46.95 31.55 46.38 32.15Q45.80 32.75 44.95 32.75L38.40 32.75Q37.95 32.75 37.95 33.20L37.95 44.75Q37.95 48.15 38.75 49.20Q39.55 50.25 41.95 50.25Q43.10 50.25 44.15 50.10Q44.95 50 45.58 50.45Q46.20 50.90 46.20 51.65Q46.20 52.55 45.60 53.25Q45 53.95 44.10 54.05Q42 54.25 40.95 54.25Q36.35 54.25 34.53 52.30Q32.70 50.35 32.70 45.25L32.70 33.20Q32.70 32.75 32.25 32.75L29.45 32.75ZM58.88 53Q58.88 53 58.49 53.38Q58.10 53.75 57.00 53.75Q55.90 53.75 55.15 53Q54.40 52.25 54.40 51.15L54.40 18.85Q54.40 17.75 55.15 17Q55.90 16.25 57.00 16.25Q58.10 16.25 58.88 17Q59.65 17.75 59.65 18.85L59.65 30.95Q59.65 31 59.70 31Q59.75 31 59.80 30.95Q63.30 27.25 67.65 27.25Q72.20 27.25 74.30 29.77Q76.40 32.30 76.40 38.25L76.40 51.20Q76.40 52.25 75.65 53Q74.90 53.75 73.85 53.75Q72.80 53.75 72.05 53Q71.30 52.25 71.30 51.20L71.30 39.25Q71.30 34.60 70.20 33.05Q69.10 31.50 66.15 31.50Q63.85 31.50 61.75 33.67Q59.65 35.85 59.65 38.25L59.65 51.15Q59.65 52.25 58.88 53ZM100.75 40.75Q100.75 40.75 100.75 36Q100.75 31.25 93.85 31.25Q86.95 31.25 86.95 40.75Q86.95 50.25 93.85 50.25Q100.75 50.25 100.75 40.75M102.85 50.73Q102.85 50.73 101.22 52.49Q99.60 54.25 93.85 54.25Q88.10 54.25 84.85 50.73Q81.60 47.20 81.60 40.75Q81.60 34.30 84.85 30.77Q88.10 27.25 93.85 27.25Q99.60 27.25 102.85 30.77Q106.10 34.30 106.10 40.75Q106.10 47.20 102.85 50.73ZM116.28 53Q116.28 53 115.89 53.38Q115.50 53.75 114.40 53.75Q113.30 53.75 112.55 53Q111.80 52.25 111.80 51.15L111.80 18.85Q111.80 17.75 112.55 17Q113.30 16.25 114.40 16.25Q115.50 16.25 116.28 17Q117.05 17.75 117.05 18.85L117.05 39.20Q117.05 39.25 117.10 39.25L117.20 39.20L126.10 29.80Q128.05 27.75 130.90 27.75L131.45 27.75Q132.25 27.75 132.57 28.50Q132.90 29.25 132.35 29.80L122.60 39.95Q122.35 40.20 122.60 40.55L132.40 51.65Q132.95 52.25 132.63 53Q132.30 53.75 131.45 53.75L130.90 53.75Q128.10 53.75 126.20 51.60L117.20 41.30Q117.15 41.25 117.10 41.25Q117.05 41.25 117.05 41.30L117.05 51.15Q117.05 52.25 116.28 53ZM153.85 40.75Q153.85 40.75 153.85 36Q153.85 31.25 146.95 31.25Q140.05 31.25 140.05 40.75Q140.05 50.25 146.95 50.25Q153.85 50.25 153.85 40.75M155.95 50.73Q155.95 50.73 154.32 52.49Q152.70 54.25 146.95 54.25Q141.20 54.25 137.95 50.73Q134.70 47.20 134.70 40.75Q134.70 34.30 137.95 30.77Q141.20 27.25 146.95 27.25Q152.70 27.25 155.95 30.77Q159.20 34.30 159.20 40.75Q159.20 47.20 155.95 50.73Z"/></g></g></svg>